<svg version="1.1" id="Layer_1" xmlns="http://www.w3.org/2000/svg" xmlns:xlink="http://www.w3.org/1999/xlink" x="0px" y="0px"
	 width="100%" viewBox="0 0 1024 1024" enable-background="new 0 0 1024 1024" xml:space="preserve">
<path fill="#000000" opacity="1.000000" stroke="none" 
	d="
M425.026794,735.113342 
	C356.722626,708.872925 310.882538,660.705750 284.334717,593.622986 
	C273.376282,565.932556 268.261841,536.902588 268.927429,507.155304 
	C269.951050,461.406860 283.357697,419.248352 308.994507,381.368774 
	C348.257385,323.356049 402.763184,287.477600 471.724243,276.198059 
	C548.847168,263.583527 616.909424,285.283325 674.610596,337.786194 
	C709.944580,369.936951 733.890320,409.467987 745.591064,456.047821 
	C754.896423,493.091949 754.912842,530.098572 745.228149,567.138428 
	C733.114136,613.469421 709.695862,652.836914 674.651306,685.605591 
	C655.340759,703.661987 634.409424,719.011230 610.165283,729.544800 
	C586.053589,740.020874 560.963867,747.094116 534.659302,749.288818 
	C530.945312,749.598633 529.160583,751.048035 529.356750,754.869812 
	C529.493286,757.528748 529.359802,760.201355 529.353577,762.867859 
	C529.328979,773.484619 521.913574,782.604980 512.715576,783.327881 
	C502.185059,784.155396 494.451050,777.678894 492.284546,766.357605 
	C491.617340,762.870911 491.546387,759.350098 491.918549,755.903015 
	C492.426910,751.194580 490.140930,749.701721 485.984070,749.362366 
	C470.997467,748.138855 456.369934,745.006226 441.992676,740.692017 
	C436.416748,739.018738 430.925293,737.064026 425.026794,735.113342 
M321.667358,435.034027 
	C312.205536,457.386963 307.716827,480.676025 307.093597,504.969208 
	C305.868164,552.736206 318.875702,595.727173 348.470764,633.453491 
	C383.822937,678.518555 429.684357,705.009338 486.798370,711.595154 
	C490.505280,712.022583 491.851044,710.762634 491.846558,706.987549 
	C491.790405,659.824585 491.829010,612.661377 491.893768,565.498352 
	C491.897461,562.799866 490.986969,560.819031 489.050385,558.917908 
	C479.062897,549.113525 469.200378,539.181885 459.289490,529.299316 
	C432.987640,503.072662 406.606323,476.924988 380.426361,450.577209 
	C372.431946,442.531494 372.347351,431.105682 379.567871,423.679993 
	C387.160767,415.871338 399.215240,415.565521 407.380432,423.594116 
	C425.076080,440.993805 442.761414,458.419067 459.946411,476.318268 
	C473.794342,490.741791 488.132843,504.662415 502.210724,518.846619 
	C510.500061,527.198486 510.756165,526.856506 519.007385,518.573792 
	C549.228455,488.237427 579.478760,457.930176 609.726685,427.620636 
	C613.031555,424.309052 616.460022,421.144653 620.885254,419.331909 
	C629.421814,415.834991 638.944885,418.519501 643.976501,425.841736 
	C649.255920,433.524597 648.376282,443.312103 641.650024,450.059235 
	C629.770386,461.975616 617.939026,473.943695 605.877991,485.674805 
	C581.509216,509.376953 557.233582,533.167542 533.661926,557.669983 
	C531.061157,560.373474 529.551025,563.213867 529.617310,566.928467 
	C529.724243,572.919617 529.877136,578.911072 529.887756,584.902588 
	C529.959351,625.232971 530.031189,665.563354 529.997375,705.893677 
	C529.994019,709.882385 530.549133,712.287231 535.480347,711.577026 
	C551.167786,709.317688 566.731750,706.487000 581.464050,700.479858 
	C661.486145,667.850098 706.872559,608.920654 714.366882,522.473450 
	C717.450256,486.906891 709.610474,452.811798 692.903870,421.158081 
	C672.035339,381.618866 641.103882,352.182251 601.212097,332.115112 
	C553.328857,308.027954 503.573029,304.103455 452.229980,318.654236 
	C421.676666,327.313141 395.223083,343.230682 371.858795,364.615387 
	C350.285034,384.361237 333.250763,407.264984 321.667358,435.034027 
z"/>
</svg>